<svg xmlns="http://www.w3.org/2000/svg" width="64" height="64" viewBox="0 0 64 64" role="img" aria-labelledby="title">
  <title id="title">SpeakVault icon</title>
  <rect width="64" height="64" rx="14" fill="#102f2b"/>
  <path d="M17 21.5c0-4.7 3.8-8.5 8.5-8.5h13c4.7 0 8.5 3.8 8.5 8.5v13c0 4.7-3.8 8.5-8.5 8.5h-6.4l-8.5 7v-7h-2.1c-4.7 0-8.5-3.8-8.5-8.5v-13Z" fill="#f7f4ef"/>
  <path d="M23 26.2c0-1.9 1.6-3.2 4.1-3.2 1.6 0 3 .4 4.2 1.1l-1 2.4c-1-.6-2.1-.9-3.1-.9-1 0-1.5.3-1.5.8 0 1.5 5.9.7 5.9 4.7 0 1.9-1.6 3.2-4.3 3.2-1.9 0-3.7-.5-4.9-1.4l1.1-2.4c1.1.8 2.6 1.2 3.8 1.2 1.1 0 1.6-.3 1.6-.9 0-1.5-5.9-.7-5.9-4.6Z" fill="#102f2b"/>
  <path d="M32.8 23.2h3l2.5 7.2 2.5-7.2h2.9l-4.2 10.9h-2.6l-4.1-10.9Z" fill="#102f2b"/>
</svg>
